<?xml version="1.0" encoding="iso-8859-1"?>
<!-- Uploaded to: SVG Repo, www.svgrepo.com, Generator: SVG Repo Mixer Tools -->
<svg fill="#000000" height="800px" width="800px" version="1.1" id="Layer_1" xmlns="http://www.w3.org/2000/svg" xmlns:xlink="http://www.w3.org/1999/xlink" 
	 viewBox="0 0 512.001 512.001" xml:space="preserve">
<g>
	<g>
		<path d="M256.002,0C163.692,0,88.592,76.433,88.592,170.381c0,59.027,29.934,113.516,78.757,144.558v114.195
			c0,23.804,18.433,43.371,41.772,45.21c4.752,21.512,23.959,37.658,46.88,37.658c22.92,0,42.128-16.146,46.88-37.658
			c23.34-1.839,41.772-21.406,41.772-45.21V314.938c48.823-31.041,78.757-85.53,78.757-144.558C423.41,76.433,348.311,0,256.002,0z
			 M256.002,478.34c-3.762,0-7.18-1.465-9.742-3.842h19.485C263.181,476.875,259.763,478.34,256.002,478.34z M299.287,440.839
			h-86.573c-6.454,0-11.706-5.251-11.706-11.706v-10.265h109.983v10.265h0.001C310.993,435.587,305.742,440.839,299.287,440.839z
			 M310.993,385.207H201.01v-19.443h109.983V385.207z M319.662,290.653c-5.35,2.967-8.67,8.602-8.67,14.72v26.733h-38.162V217.647
			h61.56c0.034,0,0.066-0.004,0.101-0.006c0.067,0,0.132,0.006,0.2,0.006c21.654,0,39.27-17.617,39.27-39.27
			s-17.617-39.27-39.27-39.27s-39.27,17.617-39.27,39.27c0,1.905,0.144,3.777,0.407,5.61h-79.355
			c0.264-1.833,0.407-3.705,0.407-5.61c0-21.654-17.617-39.27-39.27-39.27s-39.27,17.617-39.27,39.27s17.617,39.27,39.27,39.27
			h61.56v114.457h-38.162v-26.733c0-6.117-3.319-11.753-8.67-14.72c-43.232-23.968-70.087-70.055-70.087-120.272
			c0-75.386,60-136.719,133.749-136.719S389.75,94.993,389.75,170.381C389.75,220.598,362.894,266.684,319.662,290.653z
			 M329.081,178.377c0-3.093,2.517-5.61,5.61-5.61c3.093,0,5.61,2.517,5.61,5.61s-2.517,5.61-5.61,5.61
			C331.598,183.987,329.081,181.47,329.081,178.377z M183.221,178.377c0,3.093-2.517,5.61-5.61,5.61s-5.61-2.517-5.61-5.61
			s2.517-5.61,5.61-5.61S183.221,175.284,183.221,178.377z"/>
	</g>
</g>
</svg>