<?xml version="1.0" encoding="iso-8859-1"?>
<!-- Uploaded to: SVG Repo, www.svgrepo.com, Generator: SVG Repo Mixer Tools -->
<svg version="1.1" id="Layer_1" xmlns="http://www.w3.org/2000/svg" xmlns:xlink="http://www.w3.org/1999/xlink" 
	 viewBox="0 0 512 512" xml:space="preserve">
<path style="fill:#FFD322;" d="M256,0c-92.309,0-167.41,76.433-167.41,170.381c0,59.027,29.934,113.516,78.757,144.558v114.195
	c0,25.014,20.351,45.366,45.366,45.366h86.573c25.014,0,45.366-20.351,45.366-45.366V314.938
	c48.823-31.041,78.757-85.53,78.757-144.558C423.408,76.433,348.309,0,256,0z"/>
<path style="fill:#EDBE00;" d="M256.561,0.007v474.491h42.726c25.014,0,45.366-20.351,45.366-45.366V314.938
	c48.823-31.041,78.757-85.53,78.757-144.558C423.408,76.624,348.612,0.316,256.561,0.007z"/>
<path style="fill:#864D00;" d="M256,361.276c-9.295,0-16.83-7.535-16.83-16.83V200.817c0-9.295,7.535-16.83,16.83-16.83
	c9.295,0,16.83,7.535,16.83,16.83v143.629C272.83,353.74,265.295,361.276,256,361.276z"/>
<path style="fill:#AA5F00;" d="M334.39,217.647H177.609c-9.295,0-16.83-7.535-16.83-16.83c0-9.295,7.535-16.83,16.83-16.83H334.39
	c9.295,0,16.83,7.535,16.83,16.83C351.22,210.112,343.685,217.647,334.39,217.647z"/>
<path style="fill:#864D00;" d="M177.609,139.107c-21.654,0-39.27,17.617-39.27,39.27s17.617,39.27,39.27,39.27
	s39.27-17.617,39.27-39.27S199.264,139.107,177.609,139.107z"/>
<path style="fill:#AA5F00;" d="M177.609,164.352c-7.734,0-14.025,6.291-14.025,14.025c0,7.734,6.291,14.025,14.025,14.025
	c7.734,0,14.025-6.291,14.025-14.025C191.634,170.643,185.343,164.352,177.609,164.352z"/>
<path style="fill:#864D00;" d="M334.689,139.107c-21.654,0-39.27,17.617-39.27,39.27s17.617,39.27,39.27,39.27
	c21.654,0,39.27-17.617,39.27-39.27S356.344,139.107,334.689,139.107z"/>
<path style="fill:#3A393D;" d="M287.187,447.153c-9.295,0-16.83,7.535-16.83,16.83l0,0h-28.715l0,0c0-9.295-7.535-16.83-16.83-16.83
	c-9.295,0-16.83,7.535-16.83,16.83c0,26.477,21.54,48.017,48.017,48.017s48.017-21.54,48.017-48.017
	C304.017,454.688,296.482,447.153,287.187,447.153z"/>
<path id="SVGCleanerId_0" style="fill:#57565C;" d="M167.014,314.718c0.112,0.072,0.221,0.148,0.334,0.22v114.195
	c0,25.014,20.351,45.366,45.366,45.366h86.573c25.014,0,45.366-20.351,45.366-45.366V314.938c0.112-0.072,0.221-0.148,0.334-0.22
	L167.014,314.718L167.014,314.718z"/>
<g>
	<path id="SVGCleanerId_0_1_" style="fill:#57565C;" d="M167.014,314.718c0.112,0.072,0.221,0.148,0.334,0.22v114.195
		c0,25.014,20.351,45.366,45.366,45.366h86.573c25.014,0,45.366-20.351,45.366-45.366V314.938c0.112-0.072,0.221-0.148,0.334-0.22
		L167.014,314.718L167.014,314.718z"/>
</g>
<path style="fill:#4D4C52;" d="M256,314.718v159.78h43.287c25.014,0,45.366-20.351,45.366-45.366V314.938
	c0.112-0.072,0.221-0.148,0.334-0.22L256,314.718L256,314.718z"/>
<g>
	<path style="fill:#76757D;" d="M344.471,418.867c9.295,0,16.83-7.535,16.83-16.83c0-9.295-7.535-16.83-16.83-16.83H166.556
		c-9.295,0-16.83,7.535-16.83,16.83c0,9.295,7.535,16.83,16.83,16.83H344.471z"/>
	<path style="fill:#76757D;" d="M344.471,365.764c9.295,0,16.83-7.535,16.83-16.83c0-9.295-7.535-16.83-16.83-16.83H166.556
		c-9.295,0-16.83,7.535-16.83,16.83c0,9.295,7.535,16.83,16.83,16.83H344.471z"/>
</g>
<g>
	<path style="fill:#45454A;" d="M167.347,418.867v10.265c0,4.154,0.572,8.173,1.622,11.998h174.06
		c1.05-3.824,1.622-7.844,1.622-11.998v-10.265H167.347z"/>
	<rect x="167.178" y="365.762" style="fill:#45454A;" width="177.635" height="18.7"/>
</g>
<path style="fill:#AA5F00;" d="M334.689,164.352c-7.734,0-14.025,6.291-14.025,14.025c0,7.734,6.291,14.025,14.025,14.025
	c7.734,0,14.025-6.291,14.025-14.025C348.714,170.643,342.423,164.352,334.689,164.352z"/>
</svg>